<svg width="24" height="24" viewBox="0 0 24 24" fill="none" xmlns="http://www.w3.org/2000/svg">
<path d="M17.99 1.59558C16.9813 1.48857 15.9675 1.43649 14.953 1.43958C11.59 1.43958 9.50005 3.58158 9.50005 7.02958V9.37058H6.67505C6.54244 9.37058 6.41526 9.42326 6.3215 9.51703C6.22773 9.6108 6.17505 9.73797 6.17505 9.87058V13.7206C6.17505 13.8532 6.22773 13.9804 6.3215 14.0741C6.41526 14.1679 6.54244 14.2206 6.67505 14.2206H9.50005V21.9406C9.50005 22.0732 9.55273 22.2004 9.64649 22.2941C9.74026 22.3879 9.86744 22.4406 10 22.4406H13.978C14.1107 22.4406 14.2378 22.3879 14.3316 22.2941C14.4254 22.2004 14.478 22.0732 14.478 21.9406V14.2206H17.294C17.4154 14.2206 17.5327 14.1765 17.624 14.0965C17.7152 14.0165 17.7743 13.9059 17.79 13.7856L18.287 9.93558C18.2963 9.86502 18.2904 9.79329 18.2697 9.72519C18.249 9.6571 18.214 9.5942 18.167 9.54072C18.1201 9.48723 18.0623 9.44439 17.9974 9.41505C17.9326 9.38571 17.8622 9.37055 17.791 9.37058H14.478V7.41158C14.478 6.44158 14.673 6.03658 15.886 6.03658H17.925C18.0577 6.03658 18.1848 5.9839 18.2786 5.89014C18.3724 5.79637 18.425 5.66919 18.425 5.53658V2.09158C18.4251 1.97019 18.381 1.85292 18.301 1.76166C18.2209 1.67039 18.1104 1.61136 17.99 1.59558ZM17.425 5.03558L15.885 5.03658C13.728 5.03658 13.478 6.39258 13.478 7.41158V9.87158C13.478 10.004 13.5306 10.131 13.6241 10.2248C13.7177 10.3185 13.8446 10.3713 13.977 10.3716H17.223L16.854 13.2216H13.978C13.8454 13.2216 13.7183 13.2743 13.6245 13.368C13.5307 13.4618 13.478 13.589 13.478 13.7216V21.4396H10.5V13.7216C10.5 13.589 10.4474 13.4618 10.3536 13.368C10.2598 13.2743 10.1327 13.2216 10 13.2216H7.17605V10.3716H10C10.1327 10.3716 10.2598 10.3189 10.3536 10.2251C10.4474 10.1314 10.5 10.0042 10.5 9.87158V7.02958C10.5 4.15558 12.165 2.43958 14.953 2.43958C15.962 2.43958 16.873 2.49458 17.425 2.54258V5.03558Z" fill="#F3F5E4"/>
</svg>
