<svg width="24" height="24" viewBox="0 0 24 24" fill="none" xmlns="http://www.w3.org/2000/svg">
<path d="M12 7.6875C11.1471 7.6875 10.3133 7.94042 9.6041 8.41429C8.89492 8.88815 8.34217 9.56167 8.01577 10.3497C7.68937 11.1377 7.60397 12.0048 7.77036 12.8413C7.93676 13.6779 8.34749 14.4463 8.9506 15.0494C9.55372 15.6525 10.3221 16.0632 11.1587 16.2296C11.9952 16.396 12.8623 16.3106 13.6503 15.9842C14.4383 15.6578 15.1118 15.1051 15.5857 14.3959C16.0596 13.6867 16.3125 12.8529 16.3125 12C16.3125 10.8563 15.8581 9.75935 15.0494 8.9506C14.2406 8.14185 13.1437 7.6875 12 7.6875ZM12 15.1875C11.3696 15.1875 10.7533 15.0006 10.2291 14.6503C9.70494 14.3001 9.29639 13.8022 9.05513 13.2198C8.81388 12.6374 8.75076 11.9965 8.87375 11.3781C8.99674 10.7598 9.30032 10.1919 9.7461 9.7461C10.1919 9.30032 10.7598 8.99674 11.3781 8.87375C11.9965 8.75076 12.6374 8.81388 13.2198 9.05513C13.8022 9.29639 14.3001 9.70494 14.6503 10.2291C15.0006 10.7533 15.1875 11.3696 15.1875 12C15.185 12.8446 14.8484 13.6539 14.2512 14.2512C13.6539 14.8484 12.8446 15.185 12 15.1875ZM16.125 2.8125H7.875C6.53234 2.8125 5.24467 3.34587 4.29527 4.29527C3.34587 5.24467 2.8125 6.53234 2.8125 7.875V16.125C2.8125 17.4677 3.34587 18.7553 4.29527 19.7047C5.24467 20.6541 6.53234 21.1875 7.875 21.1875H16.125C17.4677 21.1875 18.7553 20.6541 19.7047 19.7047C20.6541 18.7553 21.1875 17.4677 21.1875 16.125V7.875C21.1875 6.53234 20.6541 5.24467 19.7047 4.29527C18.7553 3.34587 17.4677 2.8125 16.125 2.8125ZM20.0625 16.125C20.0625 17.1693 19.6477 18.1708 18.9092 18.9092C18.1708 19.6477 17.1693 20.0625 16.125 20.0625H7.875C6.83071 20.0625 5.82919 19.6477 5.09077 18.9092C4.35234 18.1708 3.9375 17.1693 3.9375 16.125V7.875C3.9375 6.83071 4.35234 5.82919 5.09077 5.09077C5.82919 4.35234 6.83071 3.9375 7.875 3.9375H16.125C17.1693 3.9375 18.1708 4.35234 18.9092 5.09077C19.6477 5.82919 20.0625 6.83071 20.0625 7.875V16.125ZM17.8125 7.125C17.8125 7.31042 17.7575 7.49168 17.6545 7.64585C17.5515 7.80002 17.4051 7.92018 17.2338 7.99114C17.0625 8.06209 16.874 8.08066 16.6921 8.04449C16.5102 8.00831 16.3432 7.91902 16.2121 7.78791C16.081 7.6568 15.9917 7.48975 15.9555 7.3079C15.9193 7.12604 15.9379 6.93754 16.0089 6.76623C16.0798 6.59493 16.2 6.44851 16.3542 6.3455C16.5083 6.24248 16.6896 6.1875 16.875 6.1875C17.1236 6.1875 17.3621 6.28627 17.5379 6.46209C17.7137 6.6379 17.8125 6.87636 17.8125 7.125Z" fill="#F3F5E4"/>
</svg>
