<svg width="24" height="24" viewBox="0 0 24 24" fill="none" xmlns="http://www.w3.org/2000/svg">
<path d="M20.25 2.4375H3.75C3.4019 2.4375 3.06806 2.57578 2.82192 2.82192C2.57578 3.06806 2.4375 3.4019 2.4375 3.75V20.25C2.4375 20.5981 2.57578 20.9319 2.82192 21.1781C3.06806 21.4242 3.4019 21.5625 3.75 21.5625H20.25C20.5981 21.5625 20.9319 21.4242 21.1781 21.1781C21.4242 20.9319 21.5625 20.5981 21.5625 20.25V3.75C21.5625 3.4019 21.4242 3.06806 21.1781 2.82192C20.9319 2.57578 20.5981 2.4375 20.25 2.4375ZM20.4375 20.25C20.4375 20.2997 20.4177 20.3474 20.3826 20.3826C20.3474 20.4177 20.2997 20.4375 20.25 20.4375H3.75C3.70027 20.4375 3.65258 20.4177 3.61742 20.3826C3.58225 20.3474 3.5625 20.2997 3.5625 20.25V3.75C3.5625 3.70027 3.58225 3.65258 3.61742 3.61742C3.65258 3.58225 3.70027 3.5625 3.75 3.5625H20.25C20.2997 3.5625 20.3474 3.58225 20.3826 3.61742C20.4177 3.65258 20.4375 3.70027 20.4375 3.75V20.25ZM8.8125 10.5V16.5C8.8125 16.6492 8.75324 16.7923 8.64775 16.8977C8.54226 17.0032 8.39918 17.0625 8.25 17.0625C8.10082 17.0625 7.95774 17.0032 7.85225 16.8977C7.74676 16.7923 7.6875 16.6492 7.6875 16.5V10.5C7.6875 10.3508 7.74676 10.2077 7.85225 10.1023C7.95774 9.99676 8.10082 9.9375 8.25 9.9375C8.39918 9.9375 8.54226 9.99676 8.64775 10.1023C8.75324 10.2077 8.8125 10.3508 8.8125 10.5ZM17.0625 13.125V16.5C17.0625 16.6492 17.0032 16.7923 16.8977 16.8977C16.7923 17.0032 16.6492 17.0625 16.5 17.0625C16.3508 17.0625 16.2077 17.0032 16.1023 16.8977C15.9968 16.7923 15.9375 16.6492 15.9375 16.5V13.125C15.9375 12.578 15.7202 12.0534 15.3334 11.6666C14.9466 11.2798 14.422 11.0625 13.875 11.0625C13.328 11.0625 12.8034 11.2798 12.4166 11.6666C12.0298 12.0534 11.8125 12.578 11.8125 13.125V16.5C11.8125 16.6492 11.7532 16.7923 11.6477 16.8977C11.5423 17.0032 11.3992 17.0625 11.25 17.0625C11.1008 17.0625 10.9577 17.0032 10.8523 16.8977C10.7468 16.7923 10.6875 16.6492 10.6875 16.5V10.5C10.6875 10.3508 10.7468 10.2077 10.8523 10.1023C10.9577 9.99676 11.1008 9.9375 11.25 9.9375C11.3992 9.9375 11.5423 9.99676 11.6477 10.1023C11.7532 10.2077 11.8125 10.3508 11.8125 10.5V10.6978C12.2761 10.3044 12.8425 10.0518 13.4449 9.96973C14.0474 9.8877 14.6607 9.97968 15.2126 10.2348C15.7645 10.49 16.2319 10.8976 16.5597 11.4097C16.8874 11.9218 17.0619 12.517 17.0625 13.125ZM9.1875 7.875C9.1875 8.06042 9.13252 8.24168 9.0295 8.39585C8.92649 8.55002 8.78007 8.67018 8.60877 8.74114C8.43746 8.81209 8.24896 8.83066 8.0671 8.79449C7.88525 8.75831 7.7182 8.66902 7.58709 8.53791C7.45598 8.4068 7.36669 8.23975 7.33051 8.0579C7.29434 7.87604 7.31291 7.68754 7.38386 7.51623C7.45482 7.34493 7.57498 7.19851 7.72915 7.0955C7.88332 6.99248 8.06458 6.9375 8.25 6.9375C8.49864 6.9375 8.7371 7.03627 8.91291 7.21209C9.08873 7.3879 9.1875 7.62636 9.1875 7.875Z" fill="white"/>
</svg>
