<svg width="24" height="24" viewBox="0 0 24 24" fill="none" xmlns="http://www.w3.org/2000/svg">
<path d="M21 7.3125C19.7568 7.3125 18.5645 6.81864 17.6854 5.93956C16.8064 5.06049 16.3125 3.8682 16.3125 2.625C16.3125 2.47582 16.2532 2.33274 16.1477 2.22725C16.0423 2.12176 15.8992 2.0625 15.75 2.0625H12C11.8508 2.0625 11.7077 2.12176 11.6022 2.22725C11.4968 2.33274 11.4375 2.47582 11.4375 2.625V14.625C11.4373 14.9942 11.3381 15.3566 11.1501 15.6743C10.9621 15.9921 10.6923 16.2535 10.3688 16.4314C10.0453 16.6093 9.67996 16.6971 9.31094 16.6856C8.94193 16.6742 8.58276 16.5639 8.27092 16.3662C7.95909 16.1686 7.70601 15.8909 7.53812 15.5621C7.37022 15.2333 7.29366 14.8654 7.31642 14.497C7.33919 14.1285 7.46044 13.7728 7.66753 13.4672C7.87462 13.1616 8.15995 12.9171 8.49375 12.7594C8.58912 12.7135 8.66962 12.6417 8.726 12.5521C8.78239 12.4626 8.81237 12.3589 8.8125 12.2531V8.35312C8.81226 8.27023 8.794 8.18838 8.75899 8.11324C8.72399 8.0381 8.67306 7.97147 8.60975 7.91797C8.54643 7.86446 8.47224 7.82536 8.39232 7.80337C8.31239 7.78139 8.22864 7.77704 8.14687 7.79062C6.84841 8.02418 5.64346 8.62313 4.67334 9.51725C3.70323 10.4114 3.00818 11.5636 2.6697 12.8387C2.33123 14.1138 2.36337 15.4591 2.76235 16.7166C3.16133 17.9741 3.91061 19.0918 4.92232 19.9386C5.93402 20.7853 7.1662 21.3261 8.47433 21.4973C9.78247 21.6686 11.1123 21.4633 12.3079 20.9056C13.5035 20.3478 14.5153 19.4607 15.2246 18.3483C15.9339 17.2359 16.3113 15.9443 16.3125 14.625V10.9594C17.7422 11.768 19.3575 12.1912 21 12.1875C21.1492 12.1875 21.2923 12.1282 21.3977 12.0227C21.5032 11.9173 21.5625 11.7742 21.5625 11.625V7.875C21.5625 7.72582 21.5032 7.58274 21.3977 7.47725C21.2923 7.37176 21.1492 7.3125 21 7.3125ZM20.4375 11.0438C18.8657 10.9438 17.3544 10.401 16.0781 9.47812C15.9948 9.41794 15.8965 9.38175 15.794 9.37349C15.6916 9.36522 15.5888 9.3852 15.4969 9.43125C15.4046 9.48007 15.3272 9.55285 15.2727 9.64193C15.2183 9.73101 15.1888 9.83311 15.1875 9.9375V14.625C15.1863 15.7015 14.8861 16.7565 14.3205 17.6725C13.7549 18.5884 12.946 19.3293 11.984 19.8125C11.022 20.2957 9.94476 20.5022 8.87228 20.4091C7.7998 20.316 6.77425 19.9269 5.90994 19.2851C5.04563 18.6434 4.37652 17.7742 3.97719 16.7745C3.57787 15.7748 3.46402 14.6838 3.64833 13.6232C3.83264 12.5626 4.30787 11.574 5.02106 10.7676C5.73424 9.96126 6.65735 9.36879 7.6875 9.05625V11.925C7.2166 12.2189 6.8306 12.6306 6.5677 13.1194C6.3048 13.6083 6.17412 14.1573 6.18858 14.7122C6.20304 15.2671 6.36215 15.8086 6.65016 16.2831C6.93817 16.7576 7.34509 17.1486 7.83066 17.4176C8.31622 17.6865 8.8636 17.824 9.41861 17.8164C9.97362 17.8088 10.517 17.6564 10.9951 17.3743C11.4731 17.0921 11.8692 16.6901 12.1441 16.2079C12.419 15.7257 12.5632 15.1801 12.5625 14.625V3.1875H15.2156C15.3462 4.52814 15.9382 5.78183 16.8907 6.73429C17.8432 7.68675 19.0969 8.27884 20.4375 8.40937V11.0438Z" fill="#F3F5E4"/>
</svg>
